# MagicaVoxel @ Ephtracy

# group
o 

# material
mtllib saucer.mtl
usemtl palette

# normals
vn -1 0 0
vn 1 0 0
vn 0 0 1
vn 0 0 -1
vn 0 -1 0
vn 0 1 0

# texcoords
vt 0.208984 0.5
vt 0.849609 0.5
vt 0.958984 0.5

# verts
v 0.8 2 -1.6
v 0.8 2 -2.4
v 0.8 2.1 -1.6
v 0.8 2.1 -2.4
v 1 2 -1.4
v 1 2 -1.6
v 1 2 -2.4
v 1 2 -2.6
v 1 2.1 -1.4
v 1 2.1 -1.6
v 1 2.1 -1.7
v 1 2.1 -2.3
v 1 2.1 -2.4
v 1 2.1 -2.6
v 1 2.2 -1.7
v 1 2.2 -2.3
v 1.2 2 -1.2
v 1.2 2 -1.4
v 1.2 2 -2.6
v 1.2 2 -2.8
v 1.2 2.1 -1.2
v 1.2 2.1 -1.4
v 1.2 2.1 -1.5
v 1.2 2.1 -1.7
v 1.2 2.1 -2.3
v 1.2 2.1 -2.5
v 1.2 2.1 -2.6
v 1.2 2.1 -2.8
v 1.2 2.2 -1.5
v 1.2 2.2 -1.7
v 1.2 2.2 -2.3
v 1.2 2.2 -2.5
v 1.4 2 -1
v 1.4 2 -1.2
v 1.4 2 -2.8
v 1.4 2 -3
v 1.4 2.1 -1
v 1.4 2.1 -1.2
v 1.4 2.1 -1.3
v 1.4 2.1 -1.5
v 1.4 2.1 -2.5
v 1.4 2.1 -2.7
v 1.4 2.1 -2.8
v 1.4 2.1 -3
v 1.4 2.2 -1.3
v 1.4 2.2 -1.5
v 1.4 2.2 -2.5
v 1.4 2.2 -2.7
v 1.6 2 -0.8
v 1.6 2 -1
v 1.6 2 -3
v 1.6 2 -3.2
v 1.6 2.1 -0.8
v 1.6 2.1 -1
v 1.6 2.1 -3
v 1.6 2.1 -3.2
v 1.6 2.2 -1.7
v 1.6 2.2 -2.3
v 1.6 2.4 -1.7
v 1.6 2.4 -2.3
v 1.7 2.1 -1
v 1.7 2.1 -1.3
v 1.7 2.1 -2.7
v 1.7 2.1 -3
v 1.7 2.2 -1
v 1.7 2.2 -1.3
v 1.7 2.2 -1.6
v 1.7 2.2 -1.7
v 1.7 2.2 -2.3
v 1.7 2.2 -2.4
v 1.7 2.2 -2.7
v 1.7 2.2 -3
v 1.7 2.4 -1.6
v 1.7 2.4 -1.7
v 1.7 2.4 -1.8
v 1.7 2.4 -2.2
v 1.7 2.4 -2.3
v 1.7 2.4 -2.4
v 1.7 2.5 -1.8
v 1.7 2.5 -2.2
v 1.8 2.4 -1.7
v 1.8 2.4 -1.8
v 1.8 2.4 -2.2
v 1.8 2.4 -2.3
v 1.8 2.5 -1.7
v 1.8 2.5 -1.8
v 1.8 2.5 -1.9
v 1.8 2.5 -2.1
v 1.8 2.5 -2.2
v 1.8 2.5 -2.3
v 1.8 2.6 -1.9
v 1.8 2.6 -2.1
v 1.9 2.5 -1.8
v 1.9 2.5 -1.9
v 1.9 2.5 -2.1
v 1.9 2.5 -2.2
v 1.9 2.6 -1.8
v 1.9 2.6 -1.9
v 1.9 2.6 -2.1
v 1.9 2.6 -2.2
v 1.9 2.7 -1.9
v 1.9 2.7 -2.1
v 2.1 2.5 -1.8
v 2.1 2.5 -1.9
v 2.1 2.5 -2.1
v 2.1 2.5 -2.2
v 2.1 2.6 -1.8
v 2.1 2.6 -1.9
v 2.1 2.6 -2.1
v 2.1 2.6 -2.2
v 2.1 2.7 -1.9
v 2.1 2.7 -2.1
v 2.2 2.4 -1.7
v 2.2 2.4 -1.8
v 2.2 2.4 -2.2
v 2.2 2.4 -2.3
v 2.2 2.5 -1.7
v 2.2 2.5 -1.8
v 2.2 2.5 -1.9
v 2.2 2.5 -2.1
v 2.2 2.5 -2.2
v 2.2 2.5 -2.3
v 2.2 2.6 -1.9
v 2.2 2.6 -2.1
v 2.3 2.1 -1
v 2.3 2.1 -1.3
v 2.3 2.1 -2.7
v 2.3 2.1 -3
v 2.3 2.2 -1
v 2.3 2.2 -1.3
v 2.3 2.2 -1.6
v 2.3 2.2 -1.7
v 2.3 2.2 -2.3
v 2.3 2.2 -2.4
v 2.3 2.2 -2.7
v 2.3 2.2 -3
v 2.3 2.4 -1.6
v 2.3 2.4 -1.7
v 2.3 2.4 -1.8
v 2.3 2.4 -2.2
v 2.3 2.4 -2.3
v 2.3 2.4 -2.4
v 2.3 2.5 -1.8
v 2.3 2.5 -2.2
v 2.4 2 -0.8
v 2.4 2 -1
v 2.4 2 -3
v 2.4 2 -3.2
v 2.4 2.1 -0.8
v 2.4 2.1 -1
v 2.4 2.1 -3
v 2.4 2.1 -3.2
v 2.4 2.2 -1.7
v 2.4 2.2 -2.3
v 2.4 2.4 -1.7
v 2.4 2.4 -2.3
v 2.6 2 -1
v 2.6 2 -1.2
v 2.6 2 -2.8
v 2.6 2 -3
v 2.6 2.1 -1
v 2.6 2.1 -1.2
v 2.6 2.1 -1.3
v 2.6 2.1 -1.5
v 2.6 2.1 -2.5
v 2.6 2.1 -2.7
v 2.6 2.1 -2.8
v 2.6 2.1 -3
v 2.6 2.2 -1.3
v 2.6 2.2 -1.5
v 2.6 2.2 -2.5
v 2.6 2.2 -2.7
v 2.8 2 -1.2
v 2.8 2 -1.4
v 2.8 2 -2.6
v 2.8 2 -2.8
v 2.8 2.1 -1.2
v 2.8 2.1 -1.4
v 2.8 2.1 -1.5
v 2.8 2.1 -1.7
v 2.8 2.1 -2.3
v 2.8 2.1 -2.5
v 2.8 2.1 -2.6
v 2.8 2.1 -2.8
v 2.8 2.2 -1.5
v 2.8 2.2 -1.7
v 2.8 2.2 -2.3
v 2.8 2.2 -2.5
v 3 2 -1.4
v 3 2 -1.6
v 3 2 -2.4
v 3 2 -2.6
v 3 2.1 -1.4
v 3 2.1 -1.6
v 3 2.1 -1.7
v 3 2.1 -2.3
v 3 2.1 -2.4
v 3 2.1 -2.6
v 3 2.2 -1.7
v 3 2.2 -2.3
v 3.2 2 -1.6
v 3.2 2 -2.4
v 3.2 2.1 -1.6
v 3.2 2.1 -2.4
v 1.6 2 -0.8
v 1.6 2.1 -0.8
v 2.4 2 -0.8
v 2.4 2.1 -0.8
v 1.4 2 -1
v 1.4 2.1 -1
v 1.6 2 -1
v 1.6 2.1 -1
v 1.7 2.1 -1
v 1.7 2.2 -1
v 2.3 2.1 -1
v 2.3 2.2 -1
v 2.4 2 -1
v 2.4 2.1 -1
v 2.6 2 -1
v 2.6 2.1 -1
v 1.2 2 -1.2
v 1.2 2.1 -1.2
v 1.4 2 -1.2
v 1.4 2.1 -1.2
v 2.6 2 -1.2
v 2.6 2.1 -1.2
v 2.8 2 -1.2
v 2.8 2.1 -1.2
v 1.4 2.1 -1.3
v 1.4 2.2 -1.3
v 1.7 2.1 -1.3
v 1.7 2.2 -1.3
v 2.3 2.1 -1.3
v 2.3 2.2 -1.3
v 2.6 2.1 -1.3
v 2.6 2.2 -1.3
v 1 2 -1.4
v 1 2.1 -1.4
v 1.2 2 -1.4
v 1.2 2.1 -1.4
v 2.8 2 -1.4
v 2.8 2.1 -1.4
v 3 2 -1.4
v 3 2.1 -1.4
v 1.2 2.1 -1.5
v 1.2 2.2 -1.5
v 1.4 2.1 -1.5
v 1.4 2.2 -1.5
v 2.6 2.1 -1.5
v 2.6 2.2 -1.5
v 2.8 2.1 -1.5
v 2.8 2.2 -1.5
v 0.8 2 -1.6
v 0.8 2.1 -1.6
v 1 2 -1.6
v 1 2.1 -1.6
v 1.7 2.2 -1.6
v 1.7 2.4 -1.6
v 2.3 2.2 -1.6
v 2.3 2.4 -1.6
v 3 2 -1.6
v 3 2.1 -1.6
v 3.2 2 -1.6
v 3.2 2.1 -1.6
v 1 2.1 -1.7
v 1 2.2 -1.7
v 1.2 2.1 -1.7
v 1.2 2.2 -1.7
v 1.6 2.2 -1.7
v 1.6 2.4 -1.7
v 1.7 2.2 -1.7
v 1.7 2.4 -1.7
v 1.8 2.4 -1.7
v 1.8 2.5 -1.7
v 2.2 2.4 -1.7
v 2.2 2.5 -1.7
v 2.3 2.2 -1.7
v 2.3 2.4 -1.7
v 2.4 2.2 -1.7
v 2.4 2.4 -1.7
v 2.8 2.1 -1.7
v 2.8 2.2 -1.7
v 3 2.1 -1.7
v 3 2.2 -1.7
v 1.7 2.4 -1.8
v 1.7 2.5 -1.8
v 1.8 2.4 -1.8
v 1.8 2.5 -1.8
v 1.9 2.5 -1.8
v 1.9 2.6 -1.8
v 2.1 2.5 -1.8
v 2.1 2.6 -1.8
v 2.2 2.4 -1.8
v 2.2 2.5 -1.8
v 2.3 2.4 -1.8
v 2.3 2.5 -1.8
v 1.8 2.5 -1.9
v 1.8 2.6 -1.9
v 1.9 2.5 -1.9
v 1.9 2.6 -1.9
v 1.9 2.7 -1.9
v 2.1 2.5 -1.9
v 2.1 2.6 -1.9
v 2.1 2.7 -1.9
v 2.2 2.5 -1.9
v 2.2 2.6 -1.9
v 1.8 2.5 -2.1
v 1.8 2.6 -2.1
v 1.9 2.5 -2.1
v 1.9 2.6 -2.1
v 1.9 2.7 -2.1
v 2.1 2.5 -2.1
v 2.1 2.6 -2.1
v 2.1 2.7 -2.1
v 2.2 2.5 -2.1
v 2.2 2.6 -2.1
v 1.7 2.4 -2.2
v 1.7 2.5 -2.2
v 1.8 2.4 -2.2
v 1.8 2.5 -2.2
v 1.9 2.5 -2.2
v 1.9 2.6 -2.2
v 2.1 2.5 -2.2
v 2.1 2.6 -2.2
v 2.2 2.4 -2.2
v 2.2 2.5 -2.2
v 2.3 2.4 -2.2
v 2.3 2.5 -2.2
v 1 2.1 -2.3
v 1 2.2 -2.3
v 1.2 2.1 -2.3
v 1.2 2.2 -2.3
v 1.6 2.2 -2.3
v 1.6 2.4 -2.3
v 1.7 2.2 -2.3
v 1.7 2.4 -2.3
v 1.8 2.4 -2.3
v 1.8 2.5 -2.3
v 2.2 2.4 -2.3
v 2.2 2.5 -2.3
v 2.3 2.2 -2.3
v 2.3 2.4 -2.3
v 2.4 2.2 -2.3
v 2.4 2.4 -2.3
v 2.8 2.1 -2.3
v 2.8 2.2 -2.3
v 3 2.1 -2.3
v 3 2.2 -2.3
v 0.8 2 -2.4
v 0.8 2.1 -2.4
v 1 2 -2.4
v 1 2.1 -2.4
v 1.7 2.2 -2.4
v 1.7 2.4 -2.4
v 2.3 2.2 -2.4
v 2.3 2.4 -2.4
v 3 2 -2.4
v 3 2.1 -2.4
v 3.2 2 -2.4
v 3.2 2.1 -2.4
v 1.2 2.1 -2.5
v 1.2 2.2 -2.5
v 1.4 2.1 -2.5
v 1.4 2.2 -2.5
v 2.6 2.1 -2.5
v 2.6 2.2 -2.5
v 2.8 2.1 -2.5
v 2.8 2.2 -2.5
v 1 2 -2.6
v 1 2.1 -2.6
v 1.2 2 -2.6
v 1.2 2.1 -2.6
v 2.8 2 -2.6
v 2.8 2.1 -2.6
v 3 2 -2.6
v 3 2.1 -2.6
v 1.4 2.1 -2.7
v 1.4 2.2 -2.7
v 1.7 2.1 -2.7
v 1.7 2.2 -2.7
v 2.3 2.1 -2.7
v 2.3 2.2 -2.7
v 2.6 2.1 -2.7
v 2.6 2.2 -2.7
v 1.2 2 -2.8
v 1.2 2.1 -2.8
v 1.4 2 -2.8
v 1.4 2.1 -2.8
v 2.6 2 -2.8
v 2.6 2.1 -2.8
v 2.8 2 -2.8
v 2.8 2.1 -2.8
v 1.4 2 -3
v 1.4 2.1 -3
v 1.6 2 -3
v 1.6 2.1 -3
v 1.7 2.1 -3
v 1.7 2.2 -3
v 2.3 2.1 -3
v 2.3 2.2 -3
v 2.4 2 -3
v 2.4 2.1 -3
v 2.6 2 -3
v 2.6 2.1 -3
v 1.6 2 -3.2
v 1.6 2.1 -3.2
v 2.4 2 -3.2
v 2.4 2.1 -3.2
v 1.6 2 -0.8
v 2.4 2 -0.8
v 1.4 2 -1
v 1.6 2 -1
v 2.4 2 -1
v 2.6 2 -1
v 1.2 2 -1.2
v 1.4 2 -1.2
v 2.6 2 -1.2
v 2.8 2 -1.2
v 1 2 -1.4
v 1.2 2 -1.4
v 2.8 2 -1.4
v 3 2 -1.4
v 0.8 2 -1.6
v 1 2 -1.6
v 3 2 -1.6
v 3.2 2 -1.6
v 0.8 2 -2.4
v 1 2 -2.4
v 3 2 -2.4
v 3.2 2 -2.4
v 1 2 -2.6
v 1.2 2 -2.6
v 2.8 2 -2.6
v 3 2 -2.6
v 1.2 2 -2.8
v 1.4 2 -2.8
v 2.6 2 -2.8
v 2.8 2 -2.8
v 1.4 2 -3
v 1.6 2 -3
v 2.4 2 -3
v 2.6 2 -3
v 1.6 2 -3.2
v 2.4 2 -3.2
v 1.6 2.1 -0.8
v 2.4 2.1 -0.8
v 1.4 2.1 -1
v 1.6 2.1 -1
v 1.7 2.1 -1
v 2.3 2.1 -1
v 2.4 2.1 -1
v 2.6 2.1 -1
v 1.2 2.1 -1.2
v 1.4 2.1 -1.2
v 2.6 2.1 -1.2
v 2.8 2.1 -1.2
v 1.4 2.1 -1.3
v 1.7 2.1 -1.3
v 2.3 2.1 -1.3
v 2.6 2.1 -1.3
v 1 2.1 -1.4
v 1.2 2.1 -1.4
v 2.8 2.1 -1.4
v 3 2.1 -1.4
v 1.2 2.1 -1.5
v 1.4 2.1 -1.5
v 2.6 2.1 -1.5
v 2.8 2.1 -1.5
v 0.8 2.1 -1.6
v 1 2.1 -1.6
v 3 2.1 -1.6
v 3.2 2.1 -1.6
v 1 2.1 -1.7
v 1.2 2.1 -1.7
v 2.8 2.1 -1.7
v 3 2.1 -1.7
v 1 2.1 -2.3
v 1.2 2.1 -2.3
v 2.8 2.1 -2.3
v 3 2.1 -2.3
v 0.8 2.1 -2.4
v 1 2.1 -2.4
v 3 2.1 -2.4
v 3.2 2.1 -2.4
v 1.2 2.1 -2.5
v 1.4 2.1 -2.5
v 2.6 2.1 -2.5
v 2.8 2.1 -2.5
v 1 2.1 -2.6
v 1.2 2.1 -2.6
v 2.8 2.1 -2.6
v 3 2.1 -2.6
v 1.4 2.1 -2.7
v 1.7 2.1 -2.7
v 2.3 2.1 -2.7
v 2.6 2.1 -2.7
v 1.2 2.1 -2.8
v 1.4 2.1 -2.8
v 2.6 2.1 -2.8
v 2.8 2.1 -2.8
v 1.4 2.1 -3
v 1.6 2.1 -3
v 1.7 2.1 -3
v 2.3 2.1 -3
v 2.4 2.1 -3
v 2.6 2.1 -3
v 1.6 2.1 -3.2
v 2.4 2.1 -3.2
v 1.7 2.2 -1
v 2.3 2.2 -1
v 1.4 2.2 -1.3
v 1.7 2.2 -1.3
v 2.3 2.2 -1.3
v 2.6 2.2 -1.3
v 1.2 2.2 -1.5
v 1.4 2.2 -1.5
v 2.6 2.2 -1.5
v 2.8 2.2 -1.5
v 1.7 2.2 -1.6
v 2.3 2.2 -1.6
v 1 2.2 -1.7
v 1.2 2.2 -1.7
v 1.6 2.2 -1.7
v 1.7 2.2 -1.7
v 2.3 2.2 -1.7
v 2.4 2.2 -1.7
v 2.8 2.2 -1.7
v 3 2.2 -1.7
v 1 2.2 -2.3
v 1.2 2.2 -2.3
v 1.6 2.2 -2.3
v 1.7 2.2 -2.3
v 2.3 2.2 -2.3
v 2.4 2.2 -2.3
v 2.8 2.2 -2.3
v 3 2.2 -2.3
v 1.7 2.2 -2.4
v 2.3 2.2 -2.4
v 1.2 2.2 -2.5
v 1.4 2.2 -2.5
v 2.6 2.2 -2.5
v 2.8 2.2 -2.5
v 1.4 2.2 -2.7
v 1.7 2.2 -2.7
v 2.3 2.2 -2.7
v 2.6 2.2 -2.7
v 1.7 2.2 -3
v 2.3 2.2 -3
v 1.7 2.4 -1.6
v 2.3 2.4 -1.6
v 1.6 2.4 -1.7
v 1.7 2.4 -1.7
v 1.8 2.4 -1.7
v 2.2 2.4 -1.7
v 2.3 2.4 -1.7
v 2.4 2.4 -1.7
v 1.7 2.4 -1.8
v 1.8 2.4 -1.8
v 2.2 2.4 -1.8
v 2.3 2.4 -1.8
v 1.7 2.4 -2.2
v 1.8 2.4 -2.2
v 2.2 2.4 -2.2
v 2.3 2.4 -2.2
v 1.6 2.4 -2.3
v 1.7 2.4 -2.3
v 1.8 2.4 -2.3
v 2.2 2.4 -2.3
v 2.3 2.4 -2.3
v 2.4 2.4 -2.3
v 1.7 2.4 -2.4
v 2.3 2.4 -2.4
v 1.8 2.5 -1.7
v 2.2 2.5 -1.7
v 1.7 2.5 -1.8
v 1.8 2.5 -1.8
v 1.9 2.5 -1.8
v 2.1 2.5 -1.8
v 2.2 2.5 -1.8
v 2.3 2.5 -1.8
v 1.8 2.5 -1.9
v 1.9 2.5 -1.9
v 2.1 2.5 -1.9
v 2.2 2.5 -1.9
v 1.8 2.5 -2.1
v 1.9 2.5 -2.1
v 2.1 2.5 -2.1
v 2.2 2.5 -2.1
v 1.7 2.5 -2.2
v 1.8 2.5 -2.2
v 1.9 2.5 -2.2
v 2.1 2.5 -2.2
v 2.2 2.5 -2.2
v 2.3 2.5 -2.2
v 1.8 2.5 -2.3
v 2.2 2.5 -2.3
v 1.9 2.6 -1.8
v 2.1 2.6 -1.8
v 1.8 2.6 -1.9
v 1.9 2.6 -1.9
v 2.1 2.6 -1.9
v 2.2 2.6 -1.9
v 1.8 2.6 -2.1
v 1.9 2.6 -2.1
v 2.1 2.6 -2.1
v 2.2 2.6 -2.1
v 1.9 2.6 -2.2
v 2.1 2.6 -2.2
v 1.9 2.7 -1.9
v 2.1 2.7 -1.9
v 1.9 2.7 -2.1
v 2.1 2.7 -2.1

# faces
f 3/3/1 2/3/1 1/3/1
f 4/3/1 2/3/1 3/3/1
f 9/3/1 6/3/1 5/3/1
f 10/3/1 6/3/1 9/3/1
f 13/3/1 8/3/1 7/3/1
f 14/3/1 8/3/1 13/3/1
f 15/3/1 12/3/1 11/3/1
f 16/3/1 12/3/1 15/3/1
f 21/3/1 18/3/1 17/3/1
f 22/3/1 18/3/1 21/3/1
f 27/3/1 20/3/1 19/3/1
f 28/3/1 20/3/1 27/3/1
f 29/3/1 24/3/1 23/3/1
f 30/3/1 24/3/1 29/3/1
f 31/3/1 26/3/1 25/3/1
f 32/3/1 26/3/1 31/3/1
f 37/3/1 34/3/1 33/3/1
f 38/3/1 34/3/1 37/3/1
f 43/3/1 36/3/1 35/3/1
f 44/3/1 36/3/1 43/3/1
f 45/3/1 40/3/1 39/3/1
f 46/3/1 40/3/1 45/3/1
f 47/3/1 42/3/1 41/3/1
f 48/3/1 42/3/1 47/3/1
f 53/3/1 50/3/1 49/3/1
f 54/3/1 50/3/1 53/3/1
f 55/3/1 52/3/1 51/3/1
f 56/3/1 52/3/1 55/3/1
f 59/2/1 58/2/1 57/2/1
f 60/2/1 58/2/1 59/2/1
f 65/3/1 62/3/1 61/3/1
f 66/3/1 62/3/1 65/3/1
f 71/3/1 64/3/1 63/3/1
f 72/3/1 64/3/1 71/3/1
f 73/2/1 68/2/1 67/2/1
f 74/2/1 68/2/1 73/2/1
f 77/2/1 70/2/1 69/2/1
f 78/2/1 70/2/1 77/2/1
f 79/2/1 76/2/1 75/2/1
f 80/2/1 76/2/1 79/2/1
f 85/2/1 82/2/1 81/2/1
f 86/2/1 82/2/1 85/2/1
f 89/2/1 84/2/1 83/2/1
f 90/2/1 84/2/1 89/2/1
f 91/2/1 88/2/1 87/2/1
f 92/2/1 88/2/1 91/2/1
f 97/2/1 94/2/1 93/2/1
f 98/2/1 94/2/1 97/2/1
f 99/2/1 96/2/1 95/2/1
f 100/2/1 96/2/1 99/2/1
f 101/2/1 99/2/1 98/2/1
f 102/2/1 99/2/1 101/2/1
f 103/2/2 104/2/2 107/2/2
f 107/2/2 104/2/2 108/2/2
f 105/2/2 106/2/2 109/2/2
f 109/2/2 106/2/2 110/2/2
f 108/2/2 109/2/2 111/2/2
f 111/2/2 109/2/2 112/2/2
f 113/2/2 114/2/2 117/2/2
f 117/2/2 114/2/2 118/2/2
f 115/2/2 116/2/2 121/2/2
f 121/2/2 116/2/2 122/2/2
f 119/2/2 120/2/2 123/2/2
f 123/2/2 120/2/2 124/2/2
f 125/3/2 126/3/2 129/3/2
f 129/3/2 126/3/2 130/3/2
f 127/3/2 128/3/2 135/3/2
f 135/3/2 128/3/2 136/3/2
f 131/2/2 132/2/2 137/2/2
f 137/2/2 132/2/2 138/2/2
f 133/2/2 134/2/2 141/2/2
f 141/2/2 134/2/2 142/2/2
f 139/2/2 140/2/2 143/2/2
f 143/2/2 140/2/2 144/2/2
f 145/3/2 146/3/2 149/3/2
f 149/3/2 146/3/2 150/3/2
f 147/3/2 148/3/2 151/3/2
f 151/3/2 148/3/2 152/3/2
f 153/2/2 154/2/2 155/2/2
f 155/2/2 154/2/2 156/2/2
f 157/3/2 158/3/2 161/3/2
f 161/3/2 158/3/2 162/3/2
f 159/3/2 160/3/2 167/3/2
f 167/3/2 160/3/2 168/3/2
f 163/3/2 164/3/2 169/3/2
f 169/3/2 164/3/2 170/3/2
f 165/3/2 166/3/2 171/3/2
f 171/3/2 166/3/2 172/3/2
f 173/3/2 174/3/2 177/3/2
f 177/3/2 174/3/2 178/3/2
f 175/3/2 176/3/2 183/3/2
f 183/3/2 176/3/2 184/3/2
f 179/3/2 180/3/2 185/3/2
f 185/3/2 180/3/2 186/3/2
f 181/3/2 182/3/2 187/3/2
f 187/3/2 182/3/2 188/3/2
f 189/3/2 190/3/2 193/3/2
f 193/3/2 190/3/2 194/3/2
f 191/3/2 192/3/2 197/3/2
f 197/3/2 192/3/2 198/3/2
f 195/3/2 196/3/2 199/3/2
f 199/3/2 196/3/2 200/3/2
f 201/3/2 202/3/2 203/3/2
f 203/3/2 202/3/2 204/3/2
f 207/3/3 206/3/3 205/3/3
f 208/3/3 206/3/3 207/3/3
f 211/3/3 210/3/3 209/3/3
f 212/3/3 210/3/3 211/3/3
f 215/3/3 214/3/3 213/3/3
f 216/3/3 214/3/3 215/3/3
f 219/3/3 218/3/3 217/3/3
f 220/3/3 218/3/3 219/3/3
f 223/3/3 222/3/3 221/3/3
f 224/3/3 222/3/3 223/3/3
f 227/3/3 226/3/3 225/3/3
f 228/3/3 226/3/3 227/3/3
f 231/3/3 230/3/3 229/3/3
f 232/3/3 230/3/3 231/3/3
f 235/3/3 234/3/3 233/3/3
f 236/3/3 234/3/3 235/3/3
f 239/3/3 238/3/3 237/3/3
f 240/3/3 238/3/3 239/3/3
f 243/3/3 242/3/3 241/3/3
f 244/3/3 242/3/3 243/3/3
f 247/3/3 246/3/3 245/3/3
f 248/3/3 246/3/3 247/3/3
f 251/3/3 250/3/3 249/3/3
f 252/3/3 250/3/3 251/3/3
f 255/3/3 254/3/3 253/3/3
f 256/3/3 254/3/3 255/3/3
f 259/2/3 258/2/3 257/2/3
f 260/2/3 258/2/3 259/2/3
f 263/3/3 262/3/3 261/3/3
f 264/3/3 262/3/3 263/3/3
f 267/3/3 266/3/3 265/3/3
f 268/3/3 266/3/3 267/3/3
f 271/2/3 270/2/3 269/2/3
f 272/2/3 270/2/3 271/2/3
f 275/2/3 274/2/3 273/2/3
f 276/2/3 274/2/3 275/2/3
f 279/2/3 278/2/3 277/2/3
f 280/2/3 278/2/3 279/2/3
f 283/3/3 282/3/3 281/3/3
f 284/3/3 282/3/3 283/3/3
f 287/2/3 286/2/3 285/2/3
f 288/2/3 286/2/3 287/2/3
f 291/2/3 290/2/3 289/2/3
f 292/2/3 290/2/3 291/2/3
f 295/2/3 294/2/3 293/2/3
f 296/2/3 294/2/3 295/2/3
f 299/2/3 298/2/3 297/2/3
f 300/2/3 298/2/3 299/2/3
f 303/2/3 301/2/3 300/2/3
f 304/2/3 301/2/3 303/2/3
f 305/2/3 303/2/3 302/2/3
f 306/2/3 303/2/3 305/2/3
f 307/2/4 308/2/4 309/2/4
f 309/2/4 308/2/4 310/2/4
f 310/2/4 311/2/4 313/2/4
f 313/2/4 311/2/4 314/2/4
f 312/2/4 313/2/4 315/2/4
f 315/2/4 313/2/4 316/2/4
f 317/2/4 318/2/4 319/2/4
f 319/2/4 318/2/4 320/2/4
f 321/2/4 322/2/4 323/2/4
f 323/2/4 322/2/4 324/2/4
f 325/2/4 326/2/4 327/2/4
f 327/2/4 326/2/4 328/2/4
f 329/3/4 330/3/4 331/3/4
f 331/3/4 330/3/4 332/3/4
f 333/2/4 334/2/4 335/2/4
f 335/2/4 334/2/4 336/2/4
f 337/2/4 338/2/4 339/2/4
f 339/2/4 338/2/4 340/2/4
f 341/2/4 342/2/4 343/2/4
f 343/2/4 342/2/4 344/2/4
f 345/3/4 346/3/4 347/3/4
f 347/3/4 346/3/4 348/3/4
f 349/3/4 350/3/4 351/3/4
f 351/3/4 350/3/4 352/3/4
f 353/2/4 354/2/4 355/2/4
f 355/2/4 354/2/4 356/2/4
f 357/3/4 358/3/4 359/3/4
f 359/3/4 358/3/4 360/3/4
f 361/3/4 362/3/4 363/3/4
f 363/3/4 362/3/4 364/3/4
f 365/3/4 366/3/4 367/3/4
f 367/3/4 366/3/4 368/3/4
f 369/3/4 370/3/4 371/3/4
f 371/3/4 370/3/4 372/3/4
f 373/3/4 374/3/4 375/3/4
f 375/3/4 374/3/4 376/3/4
f 377/3/4 378/3/4 379/3/4
f 379/3/4 378/3/4 380/3/4
f 381/3/4 382/3/4 383/3/4
f 383/3/4 382/3/4 384/3/4
f 385/3/4 386/3/4 387/3/4
f 387/3/4 386/3/4 388/3/4
f 389/3/4 390/3/4 391/3/4
f 391/3/4 390/3/4 392/3/4
f 393/3/4 394/3/4 395/3/4
f 395/3/4 394/3/4 396/3/4
f 397/3/4 398/3/4 399/3/4
f 399/3/4 398/3/4 400/3/4
f 401/3/4 402/3/4 403/3/4
f 403/3/4 402/3/4 404/3/4
f 405/3/4 406/3/4 407/3/4
f 407/3/4 406/3/4 408/3/4
f 412/3/5 410/3/5 409/3/5
f 413/3/5 410/3/5 412/3/5
f 416/3/5 412/3/5 411/3/5
f 416/3/5 414/3/5 413/3/5
f 416/3/5 413/3/5 412/3/5
f 417/3/5 414/3/5 416/3/5
f 420/3/5 416/3/5 415/3/5
f 420/3/5 418/3/5 417/3/5
f 420/3/5 417/3/5 416/3/5
f 421/3/5 418/3/5 420/3/5
f 424/3/5 420/3/5 419/3/5
f 424/3/5 422/3/5 421/3/5
f 424/3/5 421/3/5 420/3/5
f 425/3/5 422/3/5 424/3/5
f 427/3/5 424/3/5 423/3/5
f 427/3/5 426/3/5 425/3/5
f 427/3/5 425/3/5 424/3/5
f 428/3/5 426/3/5 427/3/5
f 429/3/5 426/3/5 428/3/5
f 430/3/5 426/3/5 429/3/5
f 431/3/5 429/3/5 428/3/5
f 432/3/5 429/3/5 431/3/5
f 433/3/5 429/3/5 432/3/5
f 434/3/5 429/3/5 433/3/5
f 435/3/5 433/3/5 432/3/5
f 436/3/5 433/3/5 435/3/5
f 437/3/5 433/3/5 436/3/5
f 438/3/5 433/3/5 437/3/5
f 439/3/5 437/3/5 436/3/5
f 440/3/5 437/3/5 439/3/5
f 441/3/5 437/3/5 440/3/5
f 442/3/5 437/3/5 441/3/5
f 443/3/5 441/3/5 440/3/5
f 444/3/5 441/3/5 443/3/5
f 445/3/6 446/3/6 448/3/6
f 448/3/6 446/3/6 449/3/6
f 449/3/6 446/3/6 450/3/6
f 450/3/6 446/3/6 451/3/6
f 447/3/6 448/3/6 454/3/6
f 448/3/6 449/3/6 454/3/6
f 450/3/6 451/3/6 455/3/6
f 451/3/6 452/3/6 455/3/6
f 453/3/6 454/3/6 457/3/6
f 454/3/6 449/3/6 457/3/6
f 457/3/6 449/3/6 458/3/6
f 455/3/6 456/3/6 459/3/6
f 450/3/6 455/3/6 459/3/6
f 459/3/6 456/3/6 460/3/6
f 453/3/6 457/3/6 462/3/6
f 460/3/6 456/3/6 463/3/6
f 461/3/6 462/3/6 465/3/6
f 462/3/6 457/3/6 465/3/6
f 465/3/6 457/3/6 466/3/6
f 463/3/6 464/3/6 467/3/6
f 460/3/6 463/3/6 467/3/6
f 467/3/6 464/3/6 468/3/6
f 461/3/6 465/3/6 470/3/6
f 468/3/6 464/3/6 471/3/6
f 469/3/6 470/3/6 473/3/6
f 470/3/6 465/3/6 473/3/6
f 473/3/6 465/3/6 474/3/6
f 471/3/6 472/3/6 475/3/6
f 468/3/6 471/3/6 475/3/6
f 475/3/6 472/3/6 476/3/6
f 469/3/6 473/3/6 477/3/6
f 476/3/6 472/3/6 480/3/6
f 477/3/6 478/3/6 481/3/6
f 469/3/6 477/3/6 481/3/6
f 481/3/6 478/3/6 482/3/6
f 479/3/6 480/3/6 483/3/6
f 480/3/6 472/3/6 483/3/6
f 483/3/6 472/3/6 484/3/6
f 482/3/6 478/3/6 485/3/6
f 479/3/6 483/3/6 488/3/6
f 485/3/6 486/3/6 489/3/6
f 482/3/6 485/3/6 489/3/6
f 489/3/6 486/3/6 490/3/6
f 487/3/6 488/3/6 491/3/6
f 488/3/6 483/3/6 491/3/6
f 491/3/6 483/3/6 492/3/6
f 490/3/6 486/3/6 493/3/6
f 487/3/6 491/3/6 496/3/6
f 493/3/6 494/3/6 497/3/6
f 490/3/6 493/3/6 497/3/6
f 497/3/6 494/3/6 498/3/6
f 495/3/6 496/3/6 499/3/6
f 496/3/6 491/3/6 499/3/6
f 499/3/6 491/3/6 500/3/6
f 498/3/6 494/3/6 501/3/6
f 501/3/6 494/3/6 502/3/6
f 502/3/6 494/3/6 503/3/6
f 495/3/6 499/3/6 504/3/6
f 504/3/6 499/3/6 505/3/6
f 505/3/6 499/3/6 506/3/6
f 502/3/6 503/3/6 507/3/6
f 504/3/6 505/3/6 507/3/6
f 503/3/6 504/3/6 507/3/6
f 507/3/6 505/3/6 508/3/6
f 509/3/6 510/3/6 512/3/6
f 512/3/6 510/3/6 513/3/6
f 511/3/6 512/3/6 516/3/6
f 513/3/6 514/3/6 516/3/6
f 512/3/6 513/3/6 516/3/6
f 516/3/6 514/3/6 517/3/6
f 515/3/6 516/3/6 519/3/6
f 517/3/6 518/3/6 519/3/6
f 516/3/6 517/3/6 519/3/6
f 519/3/6 518/3/6 520/3/6
f 515/3/6 519/3/6 522/3/6
f 522/3/6 519/3/6 523/3/6
f 523/3/6 519/3/6 524/3/6
f 520/3/6 518/3/6 525/3/6
f 525/3/6 518/3/6 526/3/6
f 526/3/6 518/3/6 527/3/6
f 521/3/6 522/3/6 529/3/6
f 522/3/6 523/3/6 529/3/6
f 529/3/6 523/3/6 530/3/6
f 530/3/6 523/3/6 531/3/6
f 527/3/6 528/3/6 534/3/6
f 526/3/6 527/3/6 534/3/6
f 534/3/6 528/3/6 535/3/6
f 535/3/6 528/3/6 536/3/6
f 531/3/6 532/3/6 537/3/6
f 530/3/6 531/3/6 537/3/6
f 534/3/6 535/3/6 538/3/6
f 533/3/6 534/3/6 538/3/6
f 530/3/6 537/3/6 539/3/6
f 537/3/6 538/3/6 539/3/6
f 539/3/6 538/3/6 540/3/6
f 538/3/6 535/3/6 541/3/6
f 540/3/6 538/3/6 541/3/6
f 541/3/6 535/3/6 542/3/6
f 540/3/6 541/3/6 543/3/6
f 543/3/6 541/3/6 544/3/6
f 544/3/6 541/3/6 545/3/6
f 545/3/6 541/3/6 546/3/6
f 544/3/6 545/3/6 547/3/6
f 547/3/6 545/3/6 548/3/6
f 549/2/6 550/2/6 552/2/6
f 552/2/6 550/2/6 553/2/6
f 553/2/6 550/2/6 554/2/6
f 554/2/6 550/2/6 555/2/6
f 551/2/6 552/2/6 557/2/6
f 552/2/6 553/2/6 557/2/6
f 557/2/6 553/2/6 558/2/6
f 555/2/6 556/2/6 559/2/6
f 554/2/6 555/2/6 559/2/6
f 559/2/6 556/2/6 560/2/6
f 551/2/6 557/2/6 561/2/6
f 560/2/6 556/2/6 564/2/6
f 561/2/6 562/2/6 565/2/6
f 551/2/6 561/2/6 565/2/6
f 565/2/6 562/2/6 566/2/6
f 566/2/6 562/2/6 567/2/6
f 563/2/6 564/2/6 568/2/6
f 564/2/6 556/2/6 569/2/6
f 568/2/6 564/2/6 569/2/6
f 569/2/6 556/2/6 570/2/6
f 566/2/6 567/2/6 571/2/6
f 567/2/6 568/2/6 571/2/6
f 568/2/6 569/2/6 571/2/6
f 571/2/6 569/2/6 572/2/6
f 573/2/6 574/2/6 576/2/6
f 576/2/6 574/2/6 577/2/6
f 577/2/6 574/2/6 578/2/6
f 578/2/6 574/2/6 579/2/6
f 575/2/6 576/2/6 581/2/6
f 576/2/6 577/2/6 581/2/6
f 581/2/6 577/2/6 582/2/6
f 579/2/6 580/2/6 583/2/6
f 578/2/6 579/2/6 583/2/6
f 583/2/6 580/2/6 584/2/6
f 575/2/6 581/2/6 585/2/6
f 584/2/6 580/2/6 588/2/6
f 585/2/6 586/2/6 589/2/6
f 575/2/6 585/2/6 589/2/6
f 589/2/6 586/2/6 590/2/6
f 590/2/6 586/2/6 591/2/6
f 587/2/6 588/2/6 592/2/6
f 588/2/6 580/2/6 593/2/6
f 592/2/6 588/2/6 593/2/6
f 593/2/6 580/2/6 594/2/6
f 590/2/6 591/2/6 595/2/6
f 591/2/6 592/2/6 595/2/6
f 592/2/6 593/2/6 595/2/6
f 595/2/6 593/2/6 596/2/6
f 597/2/6 598/2/6 600/2/6
f 600/2/6 598/2/6 601/2/6
f 599/2/6 600/2/6 603/2/6
f 603/2/6 600/2/6 604/2/6
f 601/2/6 602/2/6 605/2/6
f 605/2/6 602/2/6 606/2/6
f 604/2/6 605/2/6 607/2/6
f 607/2/6 605/2/6 608/2/6
f 609/2/6 610/2/6 611/2/6
f 611/2/6 610/2/6 612/2/6
